<mxfile host="app.diagrams.net" agent="Mozilla/5.0 (X11; Linux x86_64) AppleWebKit/537.36 (KHTML, like Gecko) Chrome/129.0.0.0 Safari/537.36" version="24.7.16">
  <diagram name="Page-1" id="G-XbsIeWpSs4Nwp9cMIx">
    <mxGraphModel dx="2206" dy="1100" grid="1" gridSize="10" guides="1" tooltips="1" connect="1" arrows="1" fold="1" page="1" pageScale="1" pageWidth="850" pageHeight="1100" math="0" shadow="0">
      <root>
        <mxCell id="0" />
        <mxCell id="1" parent="0" />
        <mxCell id="2" value="Start" style="whiteSpace=wrap;strokeWidth=2;" parent="1" vertex="1">
          <mxGeometry x="70" y="410" width="94" height="49" as="geometry" />
        </mxCell>
        <mxCell id="3" value="Stop" style="whiteSpace=wrap;strokeWidth=2;" parent="1" vertex="1">
          <mxGeometry x="71" y="509" width="93" height="49" as="geometry" />
        </mxCell>
        <mxCell id="4" value="" style="curved=1;startArrow=none;endArrow=block;exitX=0.5;exitY=1;entryX=0.5;entryY=0;" parent="1" source="2" target="3" edge="1">
          <mxGeometry relative="1" as="geometry">
            <Array as="points" />
          </mxGeometry>
        </mxCell>
        <mxCell id="DhN_52YiJQ0B7-RRkurN-5" value="Start" style="whiteSpace=wrap;strokeWidth=2;" vertex="1" parent="1">
          <mxGeometry x="190" y="410" width="94" height="49" as="geometry" />
        </mxCell>
        <mxCell id="DhN_52YiJQ0B7-RRkurN-6" value="Stop" style="whiteSpace=wrap;strokeWidth=2;" vertex="1" parent="1">
          <mxGeometry x="191" y="509" width="93" height="49" as="geometry" />
        </mxCell>
        <mxCell id="DhN_52YiJQ0B7-RRkurN-7" value="" style="curved=1;startArrow=none;endArrow=block;exitX=0.5;exitY=1;entryX=0.5;entryY=0;" edge="1" source="DhN_52YiJQ0B7-RRkurN-5" target="DhN_52YiJQ0B7-RRkurN-6" parent="1">
          <mxGeometry relative="1" as="geometry">
            <Array as="points" />
          </mxGeometry>
        </mxCell>
        <mxCell id="DhN_52YiJQ0B7-RRkurN-8" value="Start" style="whiteSpace=wrap;strokeWidth=2;" vertex="1" parent="1">
          <mxGeometry x="310" y="410" width="94" height="49" as="geometry" />
        </mxCell>
        <mxCell id="DhN_52YiJQ0B7-RRkurN-9" value="Stop" style="whiteSpace=wrap;strokeWidth=2;" vertex="1" parent="1">
          <mxGeometry x="311" y="509" width="93" height="49" as="geometry" />
        </mxCell>
        <mxCell id="DhN_52YiJQ0B7-RRkurN-10" value="" style="curved=1;startArrow=none;endArrow=block;exitX=0.5;exitY=1;entryX=0.5;entryY=0;" edge="1" source="DhN_52YiJQ0B7-RRkurN-8" target="DhN_52YiJQ0B7-RRkurN-9" parent="1">
          <mxGeometry relative="1" as="geometry">
            <Array as="points" />
          </mxGeometry>
        </mxCell>
        <mxCell id="DhN_52YiJQ0B7-RRkurN-11" value="Start" style="whiteSpace=wrap;strokeWidth=2;" vertex="1" parent="1">
          <mxGeometry x="430" y="410" width="94" height="49" as="geometry" />
        </mxCell>
        <mxCell id="DhN_52YiJQ0B7-RRkurN-12" value="Stop" style="whiteSpace=wrap;strokeWidth=2;" vertex="1" parent="1">
          <mxGeometry x="431" y="509" width="93" height="49" as="geometry" />
        </mxCell>
        <mxCell id="DhN_52YiJQ0B7-RRkurN-13" value="" style="curved=1;startArrow=none;endArrow=block;exitX=0.5;exitY=1;entryX=0.5;entryY=0;" edge="1" source="DhN_52YiJQ0B7-RRkurN-11" target="DhN_52YiJQ0B7-RRkurN-12" parent="1">
          <mxGeometry relative="1" as="geometry">
            <Array as="points" />
          </mxGeometry>
        </mxCell>
        <mxCell id="DhN_52YiJQ0B7-RRkurN-50" value="Start" style="whiteSpace=wrap;strokeWidth=2;" vertex="1" parent="1">
          <mxGeometry x="550" y="410" width="94" height="49" as="geometry" />
        </mxCell>
        <mxCell id="DhN_52YiJQ0B7-RRkurN-51" value="Stop" style="whiteSpace=wrap;strokeWidth=2;" vertex="1" parent="1">
          <mxGeometry x="551" y="509" width="93" height="49" as="geometry" />
        </mxCell>
        <mxCell id="DhN_52YiJQ0B7-RRkurN-52" value="" style="curved=1;startArrow=none;endArrow=block;exitX=0.5;exitY=1;entryX=0.5;entryY=0;" edge="1" parent="1" source="DhN_52YiJQ0B7-RRkurN-50" target="DhN_52YiJQ0B7-RRkurN-51">
          <mxGeometry relative="1" as="geometry">
            <Array as="points" />
          </mxGeometry>
        </mxCell>
        <mxCell id="DhN_52YiJQ0B7-RRkurN-53" value="Start" style="whiteSpace=wrap;strokeWidth=2;" vertex="1" parent="1">
          <mxGeometry x="670" y="410" width="94" height="49" as="geometry" />
        </mxCell>
        <mxCell id="DhN_52YiJQ0B7-RRkurN-54" value="Stop" style="whiteSpace=wrap;strokeWidth=2;" vertex="1" parent="1">
          <mxGeometry x="671" y="509" width="93" height="49" as="geometry" />
        </mxCell>
        <mxCell id="DhN_52YiJQ0B7-RRkurN-55" value="" style="curved=1;startArrow=none;endArrow=block;exitX=0.5;exitY=1;entryX=0.5;entryY=0;" edge="1" parent="1" source="DhN_52YiJQ0B7-RRkurN-53" target="DhN_52YiJQ0B7-RRkurN-54">
          <mxGeometry relative="1" as="geometry">
            <Array as="points" />
          </mxGeometry>
        </mxCell>
        <mxCell id="DhN_52YiJQ0B7-RRkurN-56" value="Start" style="whiteSpace=wrap;strokeWidth=2;" vertex="1" parent="1">
          <mxGeometry x="790" y="410" width="94" height="49" as="geometry" />
        </mxCell>
        <mxCell id="DhN_52YiJQ0B7-RRkurN-57" value="Stop" style="whiteSpace=wrap;strokeWidth=2;" vertex="1" parent="1">
          <mxGeometry x="791" y="509" width="93" height="49" as="geometry" />
        </mxCell>
        <mxCell id="DhN_52YiJQ0B7-RRkurN-58" value="" style="curved=1;startArrow=none;endArrow=block;exitX=0.5;exitY=1;entryX=0.5;entryY=0;" edge="1" parent="1" source="DhN_52YiJQ0B7-RRkurN-56" target="DhN_52YiJQ0B7-RRkurN-57">
          <mxGeometry relative="1" as="geometry">
            <Array as="points" />
          </mxGeometry>
        </mxCell>
        <mxCell id="DhN_52YiJQ0B7-RRkurN-59" value="Start" style="whiteSpace=wrap;strokeWidth=2;" vertex="1" parent="1">
          <mxGeometry x="910" y="410" width="94" height="49" as="geometry" />
        </mxCell>
        <mxCell id="DhN_52YiJQ0B7-RRkurN-60" value="Stop" style="whiteSpace=wrap;strokeWidth=2;" vertex="1" parent="1">
          <mxGeometry x="911" y="509" width="93" height="49" as="geometry" />
        </mxCell>
        <mxCell id="DhN_52YiJQ0B7-RRkurN-61" value="" style="curved=1;startArrow=none;endArrow=block;exitX=0.5;exitY=1;entryX=0.5;entryY=0;" edge="1" parent="1" source="DhN_52YiJQ0B7-RRkurN-59" target="DhN_52YiJQ0B7-RRkurN-60">
          <mxGeometry relative="1" as="geometry">
            <Array as="points" />
          </mxGeometry>
        </mxCell>
        <mxCell id="DhN_52YiJQ0B7-RRkurN-62" value="Start" style="whiteSpace=wrap;strokeWidth=2;" vertex="1" parent="1">
          <mxGeometry x="1030" y="410" width="94" height="49" as="geometry" />
        </mxCell>
        <mxCell id="DhN_52YiJQ0B7-RRkurN-63" value="Stop" style="whiteSpace=wrap;strokeWidth=2;" vertex="1" parent="1">
          <mxGeometry x="1031" y="509" width="93" height="49" as="geometry" />
        </mxCell>
        <mxCell id="DhN_52YiJQ0B7-RRkurN-64" value="" style="curved=1;startArrow=none;endArrow=block;exitX=0.5;exitY=1;entryX=0.5;entryY=0;" edge="1" parent="1" source="DhN_52YiJQ0B7-RRkurN-62" target="DhN_52YiJQ0B7-RRkurN-63">
          <mxGeometry relative="1" as="geometry">
            <Array as="points" />
          </mxGeometry>
        </mxCell>
        <mxCell id="DhN_52YiJQ0B7-RRkurN-65" value="Start" style="whiteSpace=wrap;strokeWidth=2;" vertex="1" parent="1">
          <mxGeometry x="1150" y="410" width="94" height="49" as="geometry" />
        </mxCell>
        <mxCell id="DhN_52YiJQ0B7-RRkurN-66" value="Stop" style="whiteSpace=wrap;strokeWidth=2;" vertex="1" parent="1">
          <mxGeometry x="1151" y="509" width="93" height="49" as="geometry" />
        </mxCell>
        <mxCell id="DhN_52YiJQ0B7-RRkurN-67" value="" style="curved=1;startArrow=none;endArrow=block;exitX=0.5;exitY=1;entryX=0.5;entryY=0;" edge="1" parent="1" source="DhN_52YiJQ0B7-RRkurN-65" target="DhN_52YiJQ0B7-RRkurN-66">
          <mxGeometry relative="1" as="geometry">
            <Array as="points" />
          </mxGeometry>
        </mxCell>
        <mxCell id="DhN_52YiJQ0B7-RRkurN-68" value="Start" style="whiteSpace=wrap;strokeWidth=2;" vertex="1" parent="1">
          <mxGeometry x="1270" y="410" width="94" height="49" as="geometry" />
        </mxCell>
        <mxCell id="DhN_52YiJQ0B7-RRkurN-69" value="Stop" style="whiteSpace=wrap;strokeWidth=2;" vertex="1" parent="1">
          <mxGeometry x="1271" y="509" width="93" height="49" as="geometry" />
        </mxCell>
        <mxCell id="DhN_52YiJQ0B7-RRkurN-70" value="" style="curved=1;startArrow=none;endArrow=block;exitX=0.5;exitY=1;entryX=0.5;entryY=0;" edge="1" parent="1" source="DhN_52YiJQ0B7-RRkurN-68" target="DhN_52YiJQ0B7-RRkurN-69">
          <mxGeometry relative="1" as="geometry">
            <Array as="points" />
          </mxGeometry>
        </mxCell>
        <mxCell id="DhN_52YiJQ0B7-RRkurN-71" value="Start" style="whiteSpace=wrap;strokeWidth=2;" vertex="1" parent="1">
          <mxGeometry x="1390" y="410" width="94" height="49" as="geometry" />
        </mxCell>
        <mxCell id="DhN_52YiJQ0B7-RRkurN-72" value="Stop" style="whiteSpace=wrap;strokeWidth=2;" vertex="1" parent="1">
          <mxGeometry x="1391" y="509" width="93" height="49" as="geometry" />
        </mxCell>
        <mxCell id="DhN_52YiJQ0B7-RRkurN-73" value="" style="curved=1;startArrow=none;endArrow=block;exitX=0.5;exitY=1;entryX=0.5;entryY=0;" edge="1" parent="1" source="DhN_52YiJQ0B7-RRkurN-71" target="DhN_52YiJQ0B7-RRkurN-72">
          <mxGeometry relative="1" as="geometry">
            <Array as="points" />
          </mxGeometry>
        </mxCell>
        <mxCell id="DhN_52YiJQ0B7-RRkurN-74" value="Start" style="whiteSpace=wrap;strokeWidth=2;" vertex="1" parent="1">
          <mxGeometry x="70" y="600" width="94" height="49" as="geometry" />
        </mxCell>
        <mxCell id="DhN_52YiJQ0B7-RRkurN-75" value="Stop" style="whiteSpace=wrap;strokeWidth=2;" vertex="1" parent="1">
          <mxGeometry x="71" y="699" width="93" height="49" as="geometry" />
        </mxCell>
        <mxCell id="DhN_52YiJQ0B7-RRkurN-76" value="" style="curved=1;startArrow=none;endArrow=block;exitX=0.5;exitY=1;entryX=0.5;entryY=0;" edge="1" source="DhN_52YiJQ0B7-RRkurN-74" target="DhN_52YiJQ0B7-RRkurN-75" parent="1">
          <mxGeometry relative="1" as="geometry">
            <Array as="points" />
          </mxGeometry>
        </mxCell>
        <mxCell id="DhN_52YiJQ0B7-RRkurN-77" value="Start" style="whiteSpace=wrap;strokeWidth=2;" vertex="1" parent="1">
          <mxGeometry x="190" y="600" width="94" height="49" as="geometry" />
        </mxCell>
        <mxCell id="DhN_52YiJQ0B7-RRkurN-78" value="Stop" style="whiteSpace=wrap;strokeWidth=2;" vertex="1" parent="1">
          <mxGeometry x="191" y="699" width="93" height="49" as="geometry" />
        </mxCell>
        <mxCell id="DhN_52YiJQ0B7-RRkurN-79" value="" style="curved=1;startArrow=none;endArrow=block;exitX=0.5;exitY=1;entryX=0.5;entryY=0;" edge="1" source="DhN_52YiJQ0B7-RRkurN-77" target="DhN_52YiJQ0B7-RRkurN-78" parent="1">
          <mxGeometry relative="1" as="geometry">
            <Array as="points" />
          </mxGeometry>
        </mxCell>
        <mxCell id="DhN_52YiJQ0B7-RRkurN-80" value="Start" style="whiteSpace=wrap;strokeWidth=2;" vertex="1" parent="1">
          <mxGeometry x="310" y="600" width="94" height="49" as="geometry" />
        </mxCell>
        <mxCell id="DhN_52YiJQ0B7-RRkurN-81" value="Stop" style="whiteSpace=wrap;strokeWidth=2;" vertex="1" parent="1">
          <mxGeometry x="311" y="699" width="93" height="49" as="geometry" />
        </mxCell>
        <mxCell id="DhN_52YiJQ0B7-RRkurN-82" value="" style="curved=1;startArrow=none;endArrow=block;exitX=0.5;exitY=1;entryX=0.5;entryY=0;" edge="1" source="DhN_52YiJQ0B7-RRkurN-80" target="DhN_52YiJQ0B7-RRkurN-81" parent="1">
          <mxGeometry relative="1" as="geometry">
            <Array as="points" />
          </mxGeometry>
        </mxCell>
        <mxCell id="DhN_52YiJQ0B7-RRkurN-83" value="Start" style="whiteSpace=wrap;strokeWidth=2;" vertex="1" parent="1">
          <mxGeometry x="430" y="600" width="94" height="49" as="geometry" />
        </mxCell>
        <mxCell id="DhN_52YiJQ0B7-RRkurN-84" value="Stop" style="whiteSpace=wrap;strokeWidth=2;" vertex="1" parent="1">
          <mxGeometry x="431" y="699" width="93" height="49" as="geometry" />
        </mxCell>
        <mxCell id="DhN_52YiJQ0B7-RRkurN-85" value="" style="curved=1;startArrow=none;endArrow=block;exitX=0.5;exitY=1;entryX=0.5;entryY=0;" edge="1" source="DhN_52YiJQ0B7-RRkurN-83" target="DhN_52YiJQ0B7-RRkurN-84" parent="1">
          <mxGeometry relative="1" as="geometry">
            <Array as="points" />
          </mxGeometry>
        </mxCell>
        <mxCell id="DhN_52YiJQ0B7-RRkurN-86" value="Start" style="whiteSpace=wrap;strokeWidth=2;" vertex="1" parent="1">
          <mxGeometry x="550" y="600" width="94" height="49" as="geometry" />
        </mxCell>
        <mxCell id="DhN_52YiJQ0B7-RRkurN-87" value="Stop" style="whiteSpace=wrap;strokeWidth=2;" vertex="1" parent="1">
          <mxGeometry x="551" y="699" width="93" height="49" as="geometry" />
        </mxCell>
        <mxCell id="DhN_52YiJQ0B7-RRkurN-88" value="" style="curved=1;startArrow=none;endArrow=block;exitX=0.5;exitY=1;entryX=0.5;entryY=0;" edge="1" source="DhN_52YiJQ0B7-RRkurN-86" target="DhN_52YiJQ0B7-RRkurN-87" parent="1">
          <mxGeometry relative="1" as="geometry">
            <Array as="points" />
          </mxGeometry>
        </mxCell>
        <mxCell id="DhN_52YiJQ0B7-RRkurN-89" value="Start" style="whiteSpace=wrap;strokeWidth=2;" vertex="1" parent="1">
          <mxGeometry x="670" y="600" width="94" height="49" as="geometry" />
        </mxCell>
        <mxCell id="DhN_52YiJQ0B7-RRkurN-90" value="Stop" style="whiteSpace=wrap;strokeWidth=2;" vertex="1" parent="1">
          <mxGeometry x="671" y="699" width="93" height="49" as="geometry" />
        </mxCell>
        <mxCell id="DhN_52YiJQ0B7-RRkurN-91" value="" style="curved=1;startArrow=none;endArrow=block;exitX=0.5;exitY=1;entryX=0.5;entryY=0;" edge="1" source="DhN_52YiJQ0B7-RRkurN-89" target="DhN_52YiJQ0B7-RRkurN-90" parent="1">
          <mxGeometry relative="1" as="geometry">
            <Array as="points" />
          </mxGeometry>
        </mxCell>
        <mxCell id="DhN_52YiJQ0B7-RRkurN-92" value="Start" style="whiteSpace=wrap;strokeWidth=2;" vertex="1" parent="1">
          <mxGeometry x="790" y="600" width="94" height="49" as="geometry" />
        </mxCell>
        <mxCell id="DhN_52YiJQ0B7-RRkurN-93" value="Stop" style="whiteSpace=wrap;strokeWidth=2;" vertex="1" parent="1">
          <mxGeometry x="791" y="699" width="93" height="49" as="geometry" />
        </mxCell>
        <mxCell id="DhN_52YiJQ0B7-RRkurN-94" value="" style="curved=1;startArrow=none;endArrow=block;exitX=0.5;exitY=1;entryX=0.5;entryY=0;" edge="1" source="DhN_52YiJQ0B7-RRkurN-92" target="DhN_52YiJQ0B7-RRkurN-93" parent="1">
          <mxGeometry relative="1" as="geometry">
            <Array as="points" />
          </mxGeometry>
        </mxCell>
        <mxCell id="DhN_52YiJQ0B7-RRkurN-95" value="Start" style="whiteSpace=wrap;strokeWidth=2;" vertex="1" parent="1">
          <mxGeometry x="910" y="600" width="94" height="49" as="geometry" />
        </mxCell>
        <mxCell id="DhN_52YiJQ0B7-RRkurN-96" value="Stop" style="whiteSpace=wrap;strokeWidth=2;" vertex="1" parent="1">
          <mxGeometry x="911" y="699" width="93" height="49" as="geometry" />
        </mxCell>
        <mxCell id="DhN_52YiJQ0B7-RRkurN-97" value="" style="curved=1;startArrow=none;endArrow=block;exitX=0.5;exitY=1;entryX=0.5;entryY=0;" edge="1" source="DhN_52YiJQ0B7-RRkurN-95" target="DhN_52YiJQ0B7-RRkurN-96" parent="1">
          <mxGeometry relative="1" as="geometry">
            <Array as="points" />
          </mxGeometry>
        </mxCell>
        <mxCell id="DhN_52YiJQ0B7-RRkurN-98" value="Start" style="whiteSpace=wrap;strokeWidth=2;" vertex="1" parent="1">
          <mxGeometry x="1030" y="600" width="94" height="49" as="geometry" />
        </mxCell>
        <mxCell id="DhN_52YiJQ0B7-RRkurN-99" value="Stop" style="whiteSpace=wrap;strokeWidth=2;" vertex="1" parent="1">
          <mxGeometry x="1031" y="699" width="93" height="49" as="geometry" />
        </mxCell>
        <mxCell id="DhN_52YiJQ0B7-RRkurN-100" value="" style="curved=1;startArrow=none;endArrow=block;exitX=0.5;exitY=1;entryX=0.5;entryY=0;" edge="1" source="DhN_52YiJQ0B7-RRkurN-98" target="DhN_52YiJQ0B7-RRkurN-99" parent="1">
          <mxGeometry relative="1" as="geometry">
            <Array as="points" />
          </mxGeometry>
        </mxCell>
        <mxCell id="DhN_52YiJQ0B7-RRkurN-101" value="Start" style="whiteSpace=wrap;strokeWidth=2;" vertex="1" parent="1">
          <mxGeometry x="1150" y="600" width="94" height="49" as="geometry" />
        </mxCell>
        <mxCell id="DhN_52YiJQ0B7-RRkurN-102" value="Stop" style="whiteSpace=wrap;strokeWidth=2;" vertex="1" parent="1">
          <mxGeometry x="1151" y="699" width="93" height="49" as="geometry" />
        </mxCell>
        <mxCell id="DhN_52YiJQ0B7-RRkurN-103" value="" style="curved=1;startArrow=none;endArrow=block;exitX=0.5;exitY=1;entryX=0.5;entryY=0;" edge="1" source="DhN_52YiJQ0B7-RRkurN-101" target="DhN_52YiJQ0B7-RRkurN-102" parent="1">
          <mxGeometry relative="1" as="geometry">
            <Array as="points" />
          </mxGeometry>
        </mxCell>
        <mxCell id="DhN_52YiJQ0B7-RRkurN-104" value="Start" style="whiteSpace=wrap;strokeWidth=2;" vertex="1" parent="1">
          <mxGeometry x="1270" y="600" width="94" height="49" as="geometry" />
        </mxCell>
        <mxCell id="DhN_52YiJQ0B7-RRkurN-105" value="Stop" style="whiteSpace=wrap;strokeWidth=2;" vertex="1" parent="1">
          <mxGeometry x="1271" y="699" width="93" height="49" as="geometry" />
        </mxCell>
        <mxCell id="DhN_52YiJQ0B7-RRkurN-106" value="" style="curved=1;startArrow=none;endArrow=block;exitX=0.5;exitY=1;entryX=0.5;entryY=0;" edge="1" source="DhN_52YiJQ0B7-RRkurN-104" target="DhN_52YiJQ0B7-RRkurN-105" parent="1">
          <mxGeometry relative="1" as="geometry">
            <Array as="points" />
          </mxGeometry>
        </mxCell>
        <mxCell id="DhN_52YiJQ0B7-RRkurN-107" value="Start" style="whiteSpace=wrap;strokeWidth=2;" vertex="1" parent="1">
          <mxGeometry x="1390" y="600" width="94" height="49" as="geometry" />
        </mxCell>
        <mxCell id="DhN_52YiJQ0B7-RRkurN-108" value="Stop" style="whiteSpace=wrap;strokeWidth=2;" vertex="1" parent="1">
          <mxGeometry x="1391" y="699" width="93" height="49" as="geometry" />
        </mxCell>
        <mxCell id="DhN_52YiJQ0B7-RRkurN-109" value="" style="curved=1;startArrow=none;endArrow=block;exitX=0.5;exitY=1;entryX=0.5;entryY=0;" edge="1" source="DhN_52YiJQ0B7-RRkurN-107" target="DhN_52YiJQ0B7-RRkurN-108" parent="1">
          <mxGeometry relative="1" as="geometry">
            <Array as="points" />
          </mxGeometry>
        </mxCell>
      </root>
    </mxGraphModel>
  </diagram>
</mxfile>
